HIERARCHY
ROOT Hips
{
  OFFSET 4.03046 97.0102 -2.29783
  CHANNELS 6 Xposition Yposition Zposition Zrotation Xrotation Yrotation
  JOINT Spine
  {
    OFFSET 0 11.0026 -2.28207
    CHANNELS 6 Xposition Yposition Zposition Zrotation Xrotation Yrotation
    JOINT Spine1
    {
      OFFSET 0 10.9693 0
      CHANNELS 6 Xposition Yposition Zposition Zrotation Xrotation Yrotation
      JOINT Spine2
      {
        OFFSET 0 10.9693 0
        CHANNELS 6 Xposition Yposition Zposition Zrotation Xrotation Yrotation
        JOINT Spine3
        {
          OFFSET 0 10.9693 0
          CHANNELS 6 Xposition Yposition Zposition Zrotation Xrotation Yrotation
          JOINT Neck
          {
            OFFSET 0 14.1034 1.41034
            CHANNELS 6 Xposition Yposition Zposition Zrotation Xrotation Yrotation
            JOINT Neck1
            {
              OFFSET 0 4.78292 0
              CHANNELS 6 Xposition Yposition Zposition Zrotation Xrotation Yrotation
              JOINT Head
              {
                OFFSET 0 4.78292 0
                CHANNELS 6 Xposition Yposition Zposition Zrotation Xrotation Yrotation
                End Site
                {
                  OFFSET 0 9.72808 0
                }
              }
            }
          }
          JOINT RightShoulder
          {
            OFFSET 0 10.0739 5.27092
            CHANNELS 6 Xposition Yposition Zposition Zrotation Xrotation Yrotation
            JOINT RightArm
            {
              OFFSET 0 20.7223 0
              CHANNELS 6 Xposition Yposition Zposition Zrotation Xrotation Yrotation
              JOINT RightForeArm
              {
                OFFSET 0 28.842 0
                CHANNELS 6 Xposition Yposition Zposition Zrotation Xrotation Yrotation
                JOINT RightHand
                {
                  OFFSET 0 25.0424 0
                  CHANNELS 6 Xposition Yposition Zposition Zrotation Xrotation Yrotation
                  JOINT RightHandThumb1
                  {
                    OFFSET -3.04472 3.62624 2.69644
                    CHANNELS 6 Xposition Yposition Zposition Zrotation Xrotation Yrotation
                    End Site
                    {
                      OFFSET 0 0 0
                    }
                  }
                  JOINT RightHandMiddle1
                  {
                    OFFSET 0 9.66998 -0.061987
                    CHANNELS 6 Xposition Yposition Zposition Zrotation Xrotation Yrotation
                    End Site
                    {
                      OFFSET 0 0 0
                    }
                  }
                }
              }
            }
          }
          JOINT LeftShoulder
          {
            OFFSET 0 10.0739 5.27092
            CHANNELS 6 Xposition Yposition Zposition Zrotation Xrotation Yrotation
            JOINT LeftArm
            {
              OFFSET 0 20.7223 0
              CHANNELS 6 Xposition Yposition Zposition Zrotation Xrotation Yrotation
              JOINT LeftForeArm
              {
                OFFSET 0 28.842 0
                CHANNELS 6 Xposition Yposition Zposition Zrotation Xrotation Yrotation
                JOINT LeftHand
                {
                  OFFSET 0 25.0424 0
                  CHANNELS 6 Xposition Yposition Zposition Zrotation Xrotation Yrotation
                  JOINT LeftHandThumb1
                  {
                    OFFSET 3.04472 3.62624 2.69644
                    CHANNELS 6 Xposition Yposition Zposition Zrotation Xrotation Yrotation
                    End Site
                    {
                      OFFSET 0 0 0
                    }
                  }
                  JOINT LeftHandMiddle1
                  {
                    OFFSET 0 9.66998 -0.061987
                    CHANNELS 6 Xposition Yposition Zposition Zrotation Xrotation Yrotation
                    End Site
                    {
                      OFFSET 0 0 0
                    }
                  }
                }
              }
            }
          }
        }
      }
    }
  }
  JOINT RightUpLeg
  {
    OFFSET -10.3008 0 0
    CHANNELS 6 Xposition Yposition Zposition Zrotation Xrotation Yrotation
    JOINT RightLeg
    {
      OFFSET 0 -44.9556 0
      CHANNELS 6 Xposition Yposition Zposition Zrotation Xrotation Yrotation
      JOINT RightFoot
      {
        OFFSET 0 -44.3497 0
        CHANNELS 6 Xposition Yposition Zposition Zrotation Xrotation Yrotation
        JOINT RightForeFoot
        {
          OFFSET 0 -4.35574 0
          CHANNELS 6 Xposition Yposition Zposition Zrotation Xrotation Yrotation
          JOINT RightToeBase
          {
            OFFSET 0 0 17.0584
            CHANNELS 6 Xposition Yposition Zposition Zrotation Xrotation Yrotation
            End Site
            {
              OFFSET 0 0 6.41607
            }
          }
        }
      }
    }
  }
  JOINT LeftUpLeg
  {
    OFFSET 10.3008 0 0
    CHANNELS 6 Xposition Yposition Zposition Zrotation Xrotation Yrotation
    JOINT LeftLeg
    {
      OFFSET 0 -44.9556 0
      CHANNELS 6 Xposition Yposition Zposition Zrotation Xrotation Yrotation
      JOINT LeftFoot
      {
        OFFSET 0 -44.3497 0
        CHANNELS 6 Xposition Yposition Zposition Zrotation Xrotation Yrotation
        JOINT LeftForeFoot
        {
          OFFSET 0 -4.35574 0
          CHANNELS 6 Xposition Yposition Zposition Zrotation Xrotation Yrotation
          JOINT LeftToeBase
          {
            OFFSET 0 0 17.0584
            CHANNELS 6 Xposition Yposition Zposition Zrotation Xrotation Yrotation
            End Site
            {
              OFFSET 0 0 7.80259
            }
          }
        }
      }
    }
  }
}
MOTION
Frames:	4
Frame Time:	0.00833333
4.03046 97.0102 -2.29783 0.779201 -13.86 -2.24453 8.88178e-016 11.0026 -2.28207 -1.12056 8.32212 -0.503432 0 10.9693 8.88178e-016 -0.30207 5.4591 0.13208 8.88178e-016 10.9693 1.77636e-015 -0.277171 4.42 0.784746 -4.44089e-016 10.9693 0 0.849874 2.23524 -0.305289 -8.88178e-016 14.1034 1.41034 -0.910582 4.39339 0.539039 0 4.78292 0 -0.860452 -0.769542 -3.22325 0 4.78292 0 -0.42191 -13.1386 -0.276568 8.88178e-016 10.0739 5.27092 84.7304 -24.5623 -2.19559 -2.84217e-014 20.7223 3.55271e-015 17.1139 14.2177 45.0139 0 28.842 0 4.82017e-007 28.922 -26.5556 0 25.0424 0 6.01196 -20.1846 -0 -3.04472 3.62624 2.69644 -3.18055e-015 45.2637 -0 0 9.66998 -0.061987 3.97569e-016 1.59028e-015 -6.36111e-015 8.88178e-016 10.0739 5.27092 -87.0037 -21.0184 1.07551 -2.84217e-014 20.7223 0 -11.282 15.8448 -30.6975 2.84217e-014 28.842 1.42109e-014 -1.70656e-007 24.5388 23.895 0 25.0424 0 -3.83406 -12.3895 -1.22115e-015 3.04472 3.62624 2.69644 3.16762e-015 45.2637 -5.64853e-015 0 9.66998 -0.061987 4.96962e-017 0 -3.97569e-016 -10.3008 0 0 -7.26188 16.4097 -4.49901 0 -44.9556 0 -3.41911e-016 5.5687 -1.59782e-015 0 -44.3497 -1.77636e-015 -0.143441 -8.74468 7.18532 0 -4.35574 0 2.68282e-015 7.45443e-017 -3.97569e-016 0 0 17.0584 1.99811e-015 -15.4199 4.12415e-016 10.3008 -2.84217e-014 0 -0.687912 20.2844 8.72509 0 -44.9556 -3.55271e-015 6.10919e-016 1.0494 -7.95272e-016 -3.55271e-015 -44.3497 -1.77636e-015 2.31642 -7.43657 2.82872 0 -4.35574 0 5.09386e-016 -1.49089e-016 -3.18055e-015 3.55271e-015 0 17.0584 1.83945e-015 -9.7281 -1.61348e-015 
4.02927 97.0104 -2.3037 0.78014 -13.8592 -2.23925 8.88178e-016 11.0026 -2.28207 -1.12241 8.32277 -0.503203 8.88178e-016 10.9693 8.88178e-016 -0.301848 5.45944 0.13183 0 10.9693 1.77636e-015 -0.277587 4.42036 0.781205 0 10.9693 0 0.849456 2.23578 -0.306055 8.88178e-016 14.1034 1.41034 -0.918053 4.38755 0.54291 0 4.78292 0 -0.858618 -0.765925 -3.21106 -2.22045e-016 4.78292 -3.55271e-015 -0.421146 -13.1361 -0.275567 0 10.0739 5.27092 84.7341 -24.5573 -2.19363 0 20.7223 3.55271e-015 17.1158 14.2146 45.0029 -1.42109e-014 28.842 -1.42109e-014 6.00615e-007 28.9255 -26.555 -2.84217e-014 25.0424 -5.32907e-015 6.02229 -20.1801 1.30182e-006 -3.04472 3.62624 2.69644 -2.47364e-015 45.2637 1.35565e-014 0 9.66998 -0.061987 3.97569e-016 0 -0 0 10.0739 5.27092 -87.0025 -21.0181 1.07594 0 20.7223 0 -11.2879 15.8454 -30.6838 0 28.842 -7.10543e-015 -1.70628e-007 24.5321 23.8949 0 25.0424 -3.55271e-015 -3.83143 -12.3991 -6.7593e-007 3.04472 3.62624 2.69644 1.651e-015 45.2637 -1.69456e-015 -2.84217e-014 9.66998 -0.061987 9.93923e-017 0 -0 -10.3008 0 3.55271e-015 -7.26035 16.4041 -4.50399 3.55271e-015 -44.9556 8.88178e-016 1.95035e-015 5.57364 -3.19566e-015 0 -44.3497 1.77636e-015 -0.147708 -8.74502 7.1842 -1.77636e-015 -4.35574 0 -1.55301e-016 2.48481e-017 -0 0 4.44089e-016 17.0584 -1.00461e-016 -15.4227 2.0621e-016 10.3008 -1.42109e-014 0 -0.686643 20.284 8.71346 0 -44.9556 1.77636e-015 4.68071e-016 1.04078 1.59054e-015 0 -44.3497 -1.77636e-015 2.31679 -7.43262 2.83363 7.10543e-015 -4.35574 -1.77636e-015 1.98785e-016 -4.96962e-017 -0 -7.10543e-015 -8.88178e-016 17.0584 -1.12922e-015 -9.7285 -3.22696e-015 
4.02913 97.0098 -2.31342 0.781079 -13.8584 -2.23397 -8.88178e-016 11.0026 -2.28207 -1.12426 8.32343 -0.502973 0 10.9693 8.88178e-016 -0.301625 5.45978 0.131579 4.44089e-016 10.9693 -1.77636e-015 -0.278004 4.42072 0.777663 -4.44089e-016 10.9693 0 0.849038 2.23632 -0.306821 8.88178e-016 14.1034 1.41034 -0.925524 4.3817 0.546781 -4.44089e-016 4.78292 7.10543e-015 -0.856783 -0.762308 -3.19886 4.44089e-016 4.78292 -3.55271e-015 -0.420382 -13.1335 -0.274566 8.88178e-016 10.0739 5.27092 84.7378 -24.5524 -2.19167 0 20.7223 0 17.1176 14.2115 44.9919 -1.42109e-014 28.842 -1.42109e-014 6.72508e-007 28.929 -26.5543 2.84217e-014 25.0424 3.55271e-015 6.03262 -20.1756 1.7357e-006 -3.04472 3.62624 2.69644 2.01725e-015 45.2637 -4.51883e-015 2.84217e-014 9.66998 -0.061987 0 0 -6.36111e-015 8.88178e-016 10.0739 5.27092 -87.0013 -21.0178 1.07636 0 20.7223 -1.77636e-015 -11.2939 15.8461 -30.6701 -2.84217e-014 28.842 -7.10543e-015 -1.81781e-007 24.5254 23.8948 0 25.0424 -3.55271e-015 -3.82881 -12.4087 -9.01274e-007 3.04472 3.62624 2.69644 5.04314e-016 45.2637 -1.12971e-015 5.68434e-014 9.66998 -0.061987 0 7.95139e-016 -0 -10.3008 0 -3.55271e-015 -7.25882 16.3984 -4.50897 -3.55271e-015 -44.9556 0 -1.59028e-015 5.57857 -0 0 -44.3497 1.77636e-015 -0.151974 -8.74536 7.18307 -1.77636e-015 -4.35574 0 2.11985e-015 4.96962e-017 -0 0 4.44089e-016 17.0584 1.43519e-015 -15.4255 4.12426e-016 10.3008 1.42109e-014 0 -0.685374 20.2836 8.70183 0 -44.9556 0 -2.27436e-016 1.03216 1.59054e-015 0 -44.3497 -1.77636e-015 2.31716 -7.42866 2.83855 0 -4.35574 0 1.49089e-016 1.49089e-016 -0 0 -4.44089e-016 17.0584 1.42876e-016 -9.72891 -0 
4.02743 97.0106 -2.31745 0.782018 -13.8576 -2.2287 0 11.0026 -2.28207 -1.12611 8.32408 -0.502743 8.88178e-016 10.9693 0 -0.301402 5.46012 0.131329 4.44089e-016 10.9693 1.77636e-015 -0.27842 4.42108 0.774122 8.88178e-016 10.9693 -3.55271e-015 0.84862 2.23686 -0.307587 1.77636e-015 14.1034 1.41034 -0.932994 4.37586 0.55065 0 4.78292 -7.10543e-015 -0.85495 -0.75869 -3.18667 2.22045e-016 4.78292 0 -0.419619 -13.1309 -0.273564 1.77636e-015 10.0739 5.27092 84.7415 -24.5474 -2.18971 0 20.7223 0 17.1194 14.2084 44.9808 1.42109e-014 28.842 -1.42109e-014 6.9769e-007 28.9325 -26.5536 -2.84217e-014 25.0424 -1.77636e-015 6.04295 -20.1711 1.30174e-006 -3.04472 3.62624 2.69644 -5.62479e-015 45.2637 9.03765e-015 -2.84217e-014 9.66998 -0.061987 -7.95139e-016 0 3.18055e-015 1.77636e-015 10.0739 5.27092 -87.0001 -21.0175 1.07678 0 20.7223 0 -11.2998 15.8468 -30.6565 0 28.842 0 -2.04114e-007 24.5187 23.8947 0 25.0424 3.55271e-015 -3.82618 -12.4183 -6.7598e-007 3.04472 3.62624 2.69644 4.04921e-016 45.2637 -1.12971e-015 0 9.66998 -0.061987 4.96962e-017 7.95139e-016 -1.19271e-015 -10.3008 -1.42109e-014 0 -7.25729 16.3928 -4.51395 3.55271e-015 -44.9556 0 6.52428e-016 5.58351 -1.59786e-015 0 -44.3497 1.77636e-015 -0.156241 -8.74569 7.18195 -1.77636e-015 -4.35574 0 9.79946e-016 7.45443e-017 -0 0 4.44089e-016 17.0584 -1.46033e-015 -15.4284 -2.06216e-016 10.3008 1.42109e-014 0 -0.684105 20.2832 8.69019 0 -44.9556 -1.77636e-015 -1.42061e-017 1.02355 7.95266e-016 0 -44.3497 0 2.31753 -7.4247 2.84346 3.55271e-015 -4.35574 0 -8.07563e-016 -1.98785e-016 -1.59028e-015 0 4.44089e-016 17.0584 -2.91304e-016 -9.72931 -1.61348e-015 
